<?xml version="1.0" encoding="UTF-8" standalone="no"?>
<!-- Created with Inkscape (http://www.inkscape.org/) -->

<svg
   xmlns:dc="http://purl.org/dc/elements/1.1/"
   xmlns:cc="http://creativecommons.org/ns#"
   xmlns:rdf="http://www.w3.org/1999/02/22-rdf-syntax-ns#"
   xmlns:svg="http://www.w3.org/2000/svg"
   xmlns="http://www.w3.org/2000/svg"
   xmlns:sodipodi="http://sodipodi.sourceforge.net/DTD/sodipodi-0.dtd"
   xmlns:inkscape="http://www.inkscape.org/namespaces/inkscape"
   width="856"
   height="856"
   id="svg2"
   version="1.1"
   inkscape:version="0.48.4 r9939"
   sodipodi:docname="android_fuelmanager.svg"
   inkscape:export-filename="/home/camey/programming/android/fuelmanager/res/drawable-mdpi/fuelmanager.png"
   inkscape:export-xdpi="5.0467291"
   inkscape:export-ydpi="5.0467291">
  <defs
     id="defs4" />
  <sodipodi:namedview
     id="base"
     pagecolor="#ffffff"
     bordercolor="#666666"
     borderopacity="1.0"
     inkscape:pageopacity="0.0"
     inkscape:pageshadow="2"
     inkscape:zoom="0.5"
     inkscape:cx="541.07692"
     inkscape:cy="520.86637"
     inkscape:document-units="px"
     inkscape:current-layer="layer1"
     showgrid="false"
     showguides="true"
     inkscape:window-width="1427"
     inkscape:window-height="1139"
     inkscape:window-x="330"
     inkscape:window-y="1200"
     inkscape:window-maximized="0" />
  <metadata
     id="metadata7">
    <rdf:RDF>
      <cc:Work
         rdf:about="">
        <dc:format>image/svg+xml</dc:format>
        <dc:type
           rdf:resource="http://purl.org/dc/dcmitype/StillImage" />
        <dc:title></dc:title>
      </cc:Work>
    </rdf:RDF>
  </metadata>
  <g
     inkscape:label="Layer 1"
     inkscape:groupmode="layer"
     id="layer1"
     transform="translate(0,-196.36218)">
    <rect
       style="fill:#ffffff;fill-opacity:1;fill-rule:evenodd;stroke:#000000;stroke-width:10;stroke-linecap:round;stroke-miterlimit:4;stroke-opacity:1;stroke-dasharray:none"
       id="rect3807"
       width="499.92911"
       height="296.76157"
       x="105.00794"
       y="77.571579"
       ry="54.786751"
       transform="translate(0,196.36218)" />
    <rect
       style="fill:#0000ff;fill-opacity:1;fill-rule:evenodd;stroke:#000000;stroke-width:11.18013382;stroke-linecap:round;stroke-miterlimit:4;stroke-opacity:1;stroke-dasharray:none"
       id="rect3815"
       width="389.27811"
       height="375.47879"
       x="160.33344"
       y="571.28534"
       ry="0" />
    <text
       xml:space="preserve"
       style="font-size:177.65881347999999207px;font-style:normal;font-weight:normal;line-height:125%;letter-spacing:0px;word-spacing:0px;fill:#ff2a2a;fill-opacity:1;stroke:none;font-family:Sans"
       x="123.95606"
       y="555.5166"
       id="text3848"
       sodipodi:linespacing="125%"
       transform="scale(1.1585794,0.86312599)"><tspan
         sodipodi:role="line"
         id="tspan3850"
         x="123.95606"
         y="555.5166">Fuel</tspan></text>
    <flowRoot
       xml:space="preserve"
       id="flowRoot3852"
       style="fill:black;stroke:none;stroke-opacity:1;stroke-width:1px;stroke-linejoin:miter;stroke-linecap:butt;fill-opacity:1;font-family:Sans;font-style:normal;font-weight:normal;font-size:72px;line-height:125%;letter-spacing:0px;word-spacing:0px"><flowRegion
         id="flowRegion3854"><rect
           id="rect3856"
           width="213.07047"
           height="145.27531"
           x="174.33037"
           y="110.2534" /></flowRegion><flowPara
         id="flowPara3858"></flowPara></flowRoot>    <rect
       style="fill:#ffffff;fill-opacity:1;fill-rule:evenodd;stroke:#df0000;stroke-width:1;stroke-linecap:round;stroke-miterlimit:4;stroke-opacity:1;stroke-dasharray:none"
       id="rect3860"
       width="163.03119"
       height="122.6769"
       x="276.0231"
       y="656.8905"
       ry="0" />
    <path
       style="fill:#ff0000;fill-opacity:1;fill-rule:evenodd;stroke:#000000;stroke-width:2.59993291;stroke-miterlimit:4;stroke-opacity:1"
       d="m 624.41385,306.35035 -4.83679,20.39581 44.48198,24.257 c -0.78392,3.07873 -1.24021,6.34738 -1.24021,9.68412 l 0,85.07077 c 0,12.53118 5.90306,23.58971 15.00647,30.48474 l 0,22.76234 42.99373,0 0,-21.9216 c 9.7593,-6.81462 16.16399,-18.27095 16.16399,-31.32548 l 0,-85.07077 c 0,-21.00901 -16.54522,-37.92687 -37.08209,-37.92687 -10.06624,0 -19.17059,4.06305 -25.83758,10.68056 l -49.6495,-27.09062 z m 59.52979,61.46768 c 6.12174,0 11.03781,4.71001 11.03781,10.556 l 0,67.91338 c 0,5.84599 -4.91607,10.556 -11.03781,10.556 -6.12173,0 -11.07916,-4.71001 -11.07916,-10.556 l 0,-67.91338 c 0,-5.84599 4.95743,-10.556 11.07916,-10.556 z"
       id="rect3939"
       inkscape:connector-curvature="0" />
    <path
       style="fill:none;stroke:#0000ff;stroke-width:8;stroke-linecap:butt;stroke-linejoin:miter;stroke-miterlimit:4;stroke-opacity:1;stroke-dasharray:none"
       d="m 699.66807,499.60074 c 0,0 -2.73332,17.71305 -2.73332,53.13919 0,35.42612 -4.1,96.61669 -2.73333,117.55032 1.36666,20.93361 -5.46667,104.66808 -8.19999,156.19699 -2.73333,51.5289 -5.42937,43.70208 -8.812,66.65137 -4.05245,27.49364 -28.92314,32.03119 -46.89454,34.6001 -7.39779,1.05747 -37.50563,-27.17812 -38.78353,-36.9175 -7.69288,-58.63028 1.55684,-127.13482 -2.54315,-160.95067 -4.09999,-33.81584 -21.86663,-69.24196 -53.29993,-75.68309 -21.23769,-0.46192 -21.23769,-0.46192 -21.23769,-0.46192"
       id="path3970"
       inkscape:connector-curvature="0"
       sodipodi:nodetypes="cssssssscc" />
  </g>
</svg>
